<svg width="822" height="688" viewBox="0 0 822 688" fill="none" xmlns="http://www.w3.org/2000/svg">
<g clip-path="url(#clip0_292_5)">
<path d="M755.994 674.556L743.734 674.555L737.902 627.268H755.996L755.994 674.556Z" fill="#9E616A"/>
<path d="M759.121 686.44L719.59 686.438V685.938C719.59 681.858 721.211 677.944 724.097 675.059C726.982 672.174 730.896 670.552 734.976 670.552H734.977L759.121 670.553L759.121 686.44Z" fill="#2F2E41"/>
<path d="M708.994 674.556L696.734 674.555L690.902 627.268H708.996L708.994 674.556Z" fill="#9E616A"/>
<path d="M712.121 686.44L672.59 686.438V685.938C672.59 681.858 674.211 677.944 677.097 675.059C679.982 672.174 683.896 670.552 687.976 670.552H687.977L712.121 670.553L712.121 686.44Z" fill="#2F2E41"/>
<path d="M179.332 684.611V304.801C179.332 302.462 180.261 300.218 181.915 298.564C183.569 296.91 185.813 295.981 188.152 295.981H227.512C229.851 295.981 232.095 296.91 233.749 298.564C235.403 300.218 236.332 302.462 236.332 304.801V304.801V685.601L179.332 684.611Z" fill="#275734"/>
<path d="M309.332 685.801V383.801C309.332 381.462 310.261 379.218 311.915 377.564C313.569 375.91 315.813 374.981 318.152 374.981H357.512C359.851 374.981 362.095 375.91 363.749 377.564C365.403 379.218 366.332 381.462 366.332 383.801V383.801V685.151L309.332 685.801Z" fill="#672B2B"/>
<path d="M78.3312 327C77.7518 327 77.1849 326.832 76.6989 326.517C76.2129 326.201 75.8286 325.752 75.5925 325.223C75.3564 324.694 75.2785 324.108 75.3683 323.535C75.458 322.963 75.7116 322.429 76.0984 321.998L207.704 175.207L337.222 247.936L467.511 23.4385L600.239 132.684C600.543 132.934 600.796 133.242 600.981 133.589C601.167 133.937 601.282 134.318 601.32 134.71C601.358 135.103 601.319 135.499 601.204 135.876C601.089 136.253 600.901 136.604 600.651 136.908C600.4 137.212 600.092 137.464 599.744 137.65C599.396 137.835 599.015 137.95 598.623 137.988C598.23 138.026 597.834 137.986 597.457 137.871C597.08 137.755 596.73 137.567 596.426 137.316L469.154 32.5615L339.442 256.064L208.96 182.793L80.5658 326.002C80.2847 326.317 79.9403 326.568 79.5552 326.74C79.17 326.912 78.7529 327.001 78.3312 327V327Z" fill="#737373"/>
<path d="M77.832 352C93.296 352 105.832 339.464 105.832 324C105.832 308.536 93.296 296 77.832 296C62.3681 296 49.832 308.536 49.832 324C49.832 339.464 62.3681 352 77.832 352Z" fill="#672B2B"/>
<path d="M207.832 207C223.296 207 235.832 194.464 235.832 179C235.832 163.536 223.296 151 207.832 151C192.368 151 179.832 163.536 179.832 179C179.832 194.464 192.368 207 207.832 207Z" fill="#275734"/>
<path d="M337.832 280C353.296 280 365.832 267.464 365.832 252C365.832 236.536 353.296 224 337.832 224C322.368 224 309.832 236.536 309.832 252C309.832 267.464 322.368 280 337.832 280Z" fill="#672B2B"/>
<path d="M467.832 56C483.296 56 495.832 43.464 495.832 28C495.832 12.536 483.296 0 467.832 0C452.368 0 439.832 12.536 439.832 28C439.832 43.464 452.368 56 467.832 56Z" fill="#20862B"/>
<path d="M717.832 264.535C733.296 264.535 745.832 251.999 745.832 236.535C745.832 221.071 733.296 208.535 717.832 208.535C702.368 208.535 689.832 221.071 689.832 236.535C689.832 251.999 702.368 264.535 717.832 264.535Z" fill="#275734"/>
<path d="M707.932 454.656C718.412 455.918 745.211 446.358 746.663 460.902C760.457 501.507 760.048 657.159 760.048 657.159L739.048 658.159C739.048 658.159 722.267 534.484 714.332 508.026C710.35 540.185 711.048 663.159 711.048 663.159L692.048 664.159C692.048 664.159 675.005 559.441 674.908 528.706C672.836 506.192 677.916 472.83 675.742 451.066C686.133 454.359 697.071 455.579 707.932 454.656L707.932 454.656Z" fill="#838383"/>
<path d="M569.332 684.455V246.701C569.332 241.087 573.281 236.535 578.152 236.535H617.512C622.383 236.535 626.332 241.086 626.332 246.701V685.601L569.332 684.455Z" fill="#275734"/>
<path d="M672.282 336.856C668.079 328.263 662.945 320.158 656.972 312.686C655.724 311.227 654.587 309.676 653.572 308.046C651.422 304.316 650.782 299.936 649.422 295.856C645.622 284.416 636.142 275.226 633.832 263.396C632.992 259.096 625.896 271.594 627.762 276.926C631.092 286.576 631.522 296.796 635.762 306.116C640.002 315.436 644.982 324.376 648.642 333.906C650.722 339.316 652.382 344.906 655.432 349.906C658.482 354.906 663.242 359.096 668.992 359.846C668.953 356.221 669.504 352.614 670.622 349.166C671.872 345.226 674.092 340.586 672.282 336.856Z" fill="#9E616A"/>
<path d="M735.192 343.336C734.935 336.265 736.038 329.211 738.442 322.556C739.362 320.006 740.442 317.416 740.352 314.706C740.222 312.186 739.022 309.876 737.932 307.596C734.172 299.746 731.532 291.426 728.932 283.126L723.932 267.476C722.302 266.28 731.822 265.866 733.852 268.676C740.492 277.896 745.522 288.486 750.782 298.556C752.124 300.955 753.267 303.46 754.202 306.046C755.487 310.236 756.094 314.604 756.002 318.986C756.002 327.176 754.922 335.336 753.802 343.456C753.092 348.546 752.162 354.086 748.312 357.456C744.312 352.336 740.292 347.336 735.192 343.336Z" fill="#9E616A"/>
<path d="M708.752 335.234C720.212 335.234 729.502 325.944 729.502 314.484C729.502 303.024 720.212 293.734 708.752 293.734C697.292 293.734 688.002 303.024 688.002 314.484C688.002 325.944 697.292 335.234 708.752 335.234Z" fill="#9E616A"/>
<path d="M691.884 293.782C691.651 293.152 691.598 292.47 691.733 291.812C691.867 291.154 692.182 290.547 692.643 290.059C693.162 289.65 693.85 289.498 694.405 289.108C695.195 288.444 695.841 287.627 696.305 286.705C697.722 284.722 699.796 283.304 702.159 282.704C704.522 282.104 707.022 282.361 709.214 283.428C712.643 285.223 714.713 288.817 717.763 291.237C719.311 292.491 721.107 293.421 722.665 294.675C725.784 297.37 728.002 300.958 729.019 304.953C730.03 308.922 730.621 312.986 730.781 317.078C730.943 318.306 730.895 319.552 730.639 320.764C730.323 321.78 729.852 322.741 729.243 323.614C726.108 328.363 721.976 332.676 716.799 335.127C711.622 337.577 705.324 337.976 700.219 335.412C699.705 335.204 699.262 334.851 698.946 334.395C698.656 333.702 698.586 332.936 698.747 332.201C699.024 329.298 698.45 326.377 697.094 323.795C696.144 321.895 694.719 320.261 693.959 318.295C693.253 316.095 692.95 313.784 693.066 311.476C692.976 305.494 693.382 299.539 691.884 293.782Z" fill="#2D293D"/>
<path d="M49.3311 685.05V473.709C49.3311 470.999 53.2801 468.801 58.1511 468.801H97.5111C102.382 468.801 106.331 471.001 106.331 473.709V685.601L49.3311 685.05Z" fill="#672B2B"/>
<path d="M820.169 687.802H1C0.734784 687.802 0.480429 687.696 0.292892 687.509C0.105356 687.321 0 687.067 0 686.802C0 686.537 0.105356 686.282 0.292892 686.095C0.480429 685.907 0.734784 685.802 1 685.802H820.168C820.433 685.802 820.688 685.907 820.875 686.095C821.063 686.282 821.168 686.537 821.168 686.802C821.168 687.067 821.063 687.321 820.875 687.509C820.688 687.696 820.433 687.802 820.168 687.802H820.169Z" fill="#E6E6E6"/>
<path d="M439.331 684.306V187.536C439.331 181.165 443.28 176 448.151 176H487.511C492.382 176 496.331 181.165 496.331 187.536V685.601L439.331 684.306Z" fill="#20862B"/>
<path d="M627.182 274.366C632.153 274.366 636.182 270.336 636.182 265.366C636.182 260.395 632.153 256.366 627.182 256.366C622.212 256.366 618.182 260.395 618.182 265.366C618.182 270.336 622.212 274.366 627.182 274.366Z" fill="#A0616A"/>
<path d="M727.182 270.366C732.153 270.366 736.182 266.336 736.182 261.366C736.182 256.395 732.153 252.366 727.182 252.366C722.212 252.366 718.182 256.395 718.182 261.366C718.182 266.336 722.212 270.366 727.182 270.366Z" fill="#A0616A"/>
<path d="M749.052 372.776C749.93 371.972 757.09 330.102 757.048 329.158C756.937 324 741.198 318.108 738.048 320.158C735.076 322.093 729.901 344.283 726.571 348.324L723.048 342.158H695.048L693.351 345.31C689.677 343.097 686.372 341.056 685.193 340.381C684.788 340.106 684.347 339.889 683.882 339.736C680.972 339.085 678.24 337.801 675.882 335.976C673.582 334.206 662.908 315.668 660.048 316.158C656.818 316.698 645.923 326.118 646.048 335.158C647.419 335.129 665.262 370.806 665.512 372.136C666.882 377.756 671.406 459.716 672.866 463.536C679.592 462.886 674.282 461.726 680.792 463.536C687.802 465.486 695.202 463.376 702.432 462.596C705.442 462.298 708.467 462.164 711.492 462.196C722.492 462.246 738.192 462.856 748.842 465.586C748.902 458.606 742.772 443.506 740.502 436.916C740.205 434.946 740.215 432.942 740.532 430.976C740.822 428.566 746.678 375.441 749.052 372.776Z" fill="#98ADA8"/>
</g>
<defs>
<clipPath id="clip0_292_5">
<rect width="821.168" height="687.802" fill="white"/>
</clipPath>
</defs>
</svg>
